<svg width="25" height="24" viewBox="0 0 25 24" fill="none" xmlns="http://www.w3.org/2000/svg">
<g id="chart-breakout-square">
<path id="Icon" d="M11.3333 3H8.13328C6.45312 3 5.61305 3 4.97131 3.32698C4.40682 3.6146 3.94788 4.07354 3.66026 4.63803C3.33328 5.27976 3.33328 6.11984 3.33328 7.8V16.2C3.33328 17.8802 3.33328 18.7202 3.66026 19.362C3.94788 19.9265 4.40682 20.3854 4.97131 20.673C5.61305 21 6.45312 21 8.13328 21H16.5333C18.2134 21 19.0535 21 19.6953 20.673C20.2597 20.3854 20.7187 19.9265 21.0063 19.362C21.3333 18.7202 21.3333 17.8802 21.3333 16.2V13M12.3333 8H16.3333V12M15.8333 3.5V2M19.7726 4.56066L20.8333 3.5M20.8435 8.5H22.3435M3.33328 13.3471C3.98522 13.4478 4.65315 13.5 5.33328 13.5C9.71964 13.5 13.5986 11.3276 15.953 8" stroke="#414651" stroke-width="2" stroke-linecap="round" stroke-linejoin="round"/>
</g>
</svg>
